<svg xmlns="http://www.w3.org/2000/svg" xmlns:xlink="http://www.w3.org/1999/xlink" width="500" zoomAndPan="magnify" viewBox="0 0 375 374.999991" height="500" preserveAspectRatio="xMidYMid meet" version="1.0"><defs><clipPath id="id1"><path d="M 19.4375 149.265625 L 355.4375 149.265625 L 355.4375 225.765625 L 19.4375 225.765625 Z M 19.4375 149.265625 " clip-rule="nonzero"/></clipPath><clipPath id="id2"><path d="M 226 176 L 253 176 L 253 213.050781 L 226 213.050781 Z M 226 176 " clip-rule="nonzero"/></clipPath><clipPath id="id3"><path d="M 306 164 L 344.847656 164 L 344.847656 194 L 306 194 Z M 306 164 " clip-rule="nonzero"/></clipPath><clipPath id="id4"><path d="M 306 164 L 344.847656 164 L 344.847656 194 L 306 194 Z M 306 164 " clip-rule="nonzero"/></clipPath><clipPath id="id5"><path d="M 30 162.050781 L 76 162.050781 L 76 208 L 30 208 Z M 30 162.050781 " clip-rule="nonzero"/></clipPath></defs><rect x="-37.5" width="450" fill="#ffffff" y="-37.499999" height="449.999989" fill-opacity="1"/><rect x="-37.5" width="450" fill="#ffffff" y="-37.499999" height="449.999989" fill-opacity="1"/><rect x="-37.5" width="450" fill="#ffffff" y="-37.499999" height="449.999989" fill-opacity="1"/><rect x="-37.5" width="450" fill="#ffffff" y="-37.499999" height="449.999989" fill-opacity="1"/><g clip-path="url(#id1)"><path fill="#f2f2f2" d="M 343.003906 225.765625 L 31.871094 225.765625 C 25.019531 225.765625 19.4375 220.179688 19.4375 213.324219 L 19.4375 161.710938 C 19.4375 154.855469 25.019531 149.269531 31.871094 149.269531 L 343.003906 149.269531 C 349.855469 149.269531 355.4375 154.855469 355.4375 161.710938 L 355.4375 213.324219 C 355.4375 220.179688 349.855469 225.765625 343.003906 225.765625 " fill-opacity="1" fill-rule="nonzero"/></g><path fill="#d00000" d="M 111.570312 164.039062 L 111.570312 187.730469 C 111.570312 196.769531 106.714844 201.304688 97.742188 201.304688 C 88.773438 201.304688 83.917969 196.769531 83.917969 187.730469 L 83.917969 164.039062 L 91.617188 164.039062 L 91.617188 185.246094 C 91.617188 191.570312 93.574219 193.625 97.742188 193.625 C 101.914062 193.625 103.871094 191.570312 103.871094 185.246094 L 103.871094 164.039062 Z M 111.570312 164.039062 " fill-opacity="1" fill-rule="nonzero"/><path fill="#003050" d="M 125.03125 199.949219 L 117.832031 199.949219 L 117.832031 187.324219 C 117.832031 179.746094 121.476562 176.777344 129.675781 176.777344 C 137.875 176.777344 141.519531 179.746094 141.519531 187.324219 L 141.519531 199.949219 L 134.316406 199.949219 L 134.316406 189.265625 C 134.316406 184.644531 133.058594 182.605469 129.675781 182.605469 C 126.292969 182.605469 125.03125 184.644531 125.03125 189.265625 Z M 125.03125 199.949219 " fill-opacity="1" fill-rule="nonzero"/><path fill="#003050" d="M 147.578125 189.066406 C 147.578125 182.257812 152.175781 176.777344 158.441406 176.777344 C 159.75 176.738281 161.015625 176.972656 162.226562 177.472656 C 163.441406 177.972656 164.5 178.699219 165.40625 179.652344 L 165.953125 180.230469 L 165.953125 177.472656 L 173.246094 177.472656 L 173.246094 192.128906 C 173.207031 199.152344 171.453125 200.535156 166.042969 200.605469 L 166.042969 197.914062 L 165.488281 197.914062 L 165.394531 198.027344 C 164.53125 199.0625 163.492188 199.867188 162.277344 200.4375 C 161.0625 201.011719 159.78125 201.300781 158.441406 201.304688 C 152.175781 201.304688 147.578125 195.871094 147.578125 189.066406 Z M 155.25 189.066406 C 155.25 192.597656 157.457031 195.160156 160.707031 195.160156 C 163.835938 195.160156 166.132812 192.601562 166.132812 189.066406 C 166.132812 185.476562 163.707031 182.921875 160.707031 182.921875 C 157.671875 182.921875 155.25 185.472656 155.25 189.066406 Z M 155.25 189.066406 " fill-opacity="1" fill-rule="nonzero"/><path fill="#003050" d="M 187.070312 177.792969 L 192.703125 190.886719 L 198.335938 177.792969 L 206.886719 177.792969 L 195.109375 200.289062 L 190.296875 200.289062 L 178.519531 177.792969 Z M 187.070312 177.792969 " fill-opacity="1" fill-rule="nonzero"/><path fill="#003050" d="M 212.949219 199.949219 L 212.949219 176.867188 L 220.378906 176.867188 L 220.378906 199.949219 Z M 213.265625 169.121094 C 213.28125 168.660156 213.386719 168.21875 213.574219 167.800781 C 213.765625 167.382812 214.027344 167.015625 214.363281 166.699219 C 214.699219 166.382812 215.082031 166.144531 215.511719 165.980469 C 215.9375 165.816406 216.382812 165.738281 216.84375 165.75 C 217.300781 165.761719 217.742188 165.859375 218.164062 166.046875 C 218.582031 166.234375 218.953125 166.492188 219.269531 166.824219 C 219.589844 167.15625 219.832031 167.535156 220.003906 167.964844 C 220.171875 168.390625 220.253906 168.835938 220.246094 169.296875 C 220.242188 169.757812 220.148438 170.199219 219.96875 170.625 C 219.789062 171.046875 219.535156 171.421875 219.207031 171.746094 C 218.882812 172.070312 218.507812 172.320312 218.082031 172.496094 C 217.65625 172.667969 217.214844 172.757812 216.753906 172.757812 C 216.285156 172.742188 215.835938 172.636719 215.40625 172.445312 C 214.976562 172.253906 214.597656 171.988281 214.273438 171.648438 C 213.949219 171.308594 213.695312 170.921875 213.523438 170.484375 C 213.347656 170.046875 213.261719 169.589844 213.265625 169.121094 Z M 213.265625 169.121094 " fill-opacity="1" fill-rule="nonzero"/><g clip-path="url(#id2)"><path fill="#003050" d="M 227.375 206.820312 L 233.289062 203.886719 C 234.238281 205.320312 236.167969 206.769531 239.390625 206.769531 C 241.59375 206.769531 245.097656 205.375 245.097656 201.011719 L 245.097656 198.414062 L 244.535156 199.066406 C 243 200.84375 240.535156 201.304688 237.535156 201.304688 C 231.238281 201.304688 226.640625 195.871094 226.640625 189.066406 C 226.640625 182.257812 231.238281 176.777344 237.535156 176.777344 C 238.824219 176.738281 240.066406 176.960938 241.261719 177.4375 C 242.457031 177.910156 243.511719 178.605469 244.425781 179.515625 L 244.519531 179.609375 L 245.097656 179.609375 L 245.097656 177.476562 C 248.417969 177.492188 251.996094 177.289062 252.3125 184.285156 L 252.3125 201.597656 C 252.3125 209.144531 246.816406 213.050781 239.390625 213.050781 C 234.871094 213.050781 229.773438 211.976562 227.375 206.820312 Z M 234.328125 189.066406 C 234.328125 192.597656 236.546875 195.160156 239.820312 195.160156 C 242.964844 195.160156 245.269531 192.601562 245.269531 189.066406 C 245.269531 185.476562 242.835938 182.921875 239.820312 182.921875 C 236.761719 182.921875 234.328125 185.472656 234.328125 189.066406 Z M 252.308594 184.417969 L 252.3125 184.425781 L 252.308594 184.410156 Z M 252.308594 184.417969 " fill-opacity="1" fill-rule="nonzero"/></g><path fill="#003050" d="M 258.234375 189.066406 C 258.234375 182.257812 262.832031 176.777344 269.09375 176.777344 C 270.40625 176.738281 271.667969 176.972656 272.882812 177.472656 C 274.097656 177.972656 275.15625 178.699219 276.0625 179.652344 L 276.609375 180.230469 L 276.609375 177.472656 L 283.902344 177.472656 L 283.902344 192.128906 C 283.863281 199.152344 282.109375 200.535156 276.699219 200.605469 L 276.699219 197.914062 L 276.144531 197.914062 L 276.050781 198.027344 C 275.1875 199.0625 274.148438 199.867188 272.933594 200.4375 C 271.71875 201.011719 270.4375 201.300781 269.09375 201.304688 C 262.832031 201.304688 258.234375 195.871094 258.234375 189.066406 Z M 265.90625 189.066406 C 265.90625 192.597656 268.109375 195.160156 271.363281 195.160156 C 274.492188 195.160156 276.789062 192.601562 276.789062 189.066406 C 276.789062 185.476562 274.363281 182.921875 271.363281 182.921875 C 268.328125 182.921875 265.90625 185.472656 265.90625 189.066406 Z M 265.90625 189.066406 " fill-opacity="1" fill-rule="nonzero"/><path fill="#003050" d="M 292.640625 177.636719 L 292.640625 168.828125 L 299.296875 168.828125 L 299.296875 177.6875 L 304.09375 177.6875 C 303.925781 180.300781 304.644531 183.226562 299.597656 183.25 L 299.296875 183.253906 L 299.296875 191.160156 C 299.296875 193.390625 299.835938 194.800781 301.402344 194.800781 C 302.042969 194.773438 302.640625 194.597656 303.191406 194.265625 L 304.957031 200.027344 C 303.238281 200.855469 301.421875 201.28125 299.515625 201.304688 C 294.089844 201.304688 292.640625 196.738281 292.640625 192.609375 L 292.640625 183.175781 L 289.308594 183.175781 L 289.308594 177.636719 Z M 292.640625 177.636719 " fill-opacity="1" fill-rule="nonzero"/><path fill="#003050" d="M 333.859375 189.945312 L 317.640625 189.945312 L 317.640625 190.296875 C 317.640625 194.257812 320.691406 195.613281 322.710938 195.613281 C 325.140625 195.613281 326.371094 195.058594 328.128906 193.117188 L 333.324219 195.726562 C 330.738281 199.785156 326.84375 201.304688 322.15625 201.304688 C 315.6875 201.304688 310.136719 195.78125 310.136719 189.066406 C 310.136719 182.300781 315.6875 176.777344 322.15625 176.777344 C 328.699219 176.777344 333.871094 180.9375 333.871094 189.171875 C 333.871094 189.378906 333.867188 189.769531 333.859375 189.945312 Z M 317.832031 185.722656 L 326.890625 185.722656 L 326.835938 185.332031 C 326.472656 182.734375 324.734375 181.292969 322.367188 181.292969 C 319.613281 181.292969 317.992188 183.058594 317.855469 185.359375 Z M 317.832031 185.722656 " fill-opacity="1" fill-rule="nonzero"/><path fill="#d00000" d="M 339.207031 183.378906 C 339.386719 183.292969 339.535156 183.171875 339.652344 183.011719 C 339.773438 182.851562 339.847656 182.671875 339.875 182.476562 C 339.90625 182.28125 339.886719 182.089844 339.824219 181.898438 C 339.757812 181.710938 339.652344 181.550781 339.507812 181.414062 C 339.425781 181.363281 339.375 181.289062 339.355469 181.195312 C 339.332031 181.101562 339.347656 181.015625 339.398438 180.933594 C 339.734375 180.109375 340.066406 179.285156 340.371094 178.457031 C 340.398438 178.34375 340.460938 178.257812 340.558594 178.195312 C 340.65625 178.132812 340.761719 178.117188 340.875 178.136719 C 341.6875 178.160156 342.503906 178.15625 343.320312 178.160156 C 343.441406 178.164062 343.558594 178.15625 343.785156 178.148438 C 343.484375 177.945312 343.265625 177.792969 343.042969 177.648438 C 338.679688 174.777344 334.3125 171.910156 329.949219 169.046875 C 329.757812 168.917969 329.542969 168.847656 329.3125 168.835938 C 323.257812 168.738281 317.203125 168.648438 311.144531 168.566406 C 311.035156 168.5625 310.929688 168.585938 310.828125 168.636719 L 318.835938 173.464844 L 316.523438 179.328125 C 316.566406 179.347656 316.589844 179.367188 316.605469 179.363281 C 318.4375 178.523438 320.292969 178.546875 322.132812 178.886719 C 324.613281 179.28125 326.96875 180.054688 329.203125 181.207031 C 330.527344 181.851562 331.605469 182.785156 332.429688 184.007812 L 332.597656 183.585938 C 333.273438 181.863281 333.960938 180.148438 334.625 178.425781 C 334.652344 178.3125 334.710938 178.226562 334.808594 178.164062 C 334.902344 178.097656 335.003906 178.078125 335.117188 178.09375 C 336.621094 178.117188 338.128906 178.121094 339.632812 178.136719 C 339.730469 178.136719 339.828125 178.144531 339.949219 178.148438 C 339.941406 178.226562 339.921875 178.300781 339.902344 178.375 C 339.578125 179.199219 339.257812 180.027344 338.917969 180.847656 C 338.839844 180.980469 338.726562 181.066406 338.578125 181.101562 C 338.050781 181.152344 337.667969 181.414062 337.429688 181.886719 C 337.304688 182.09375 337.253906 182.320312 337.285156 182.558594 C 337.3125 182.800781 337.410156 183.007812 337.578125 183.183594 C 337.722656 183.335938 337.691406 183.449219 337.585938 183.613281 C 336.660156 185.089844 335.738281 186.5625 334.820312 188.042969 C 334.785156 188.09375 334.757812 188.148438 334.710938 188.226562 L 336.441406 188.726562 L 337.121094 187.5 C 337.238281 187.972656 337.355469 188.355469 337.425781 188.75 C 337.480469 189.039062 337.632812 189.171875 337.972656 189.152344 L 338.574219 183.628906 C 338.792969 183.5625 339 183.476562 339.207031 183.378906 Z M 339.207031 183.378906 " fill-opacity="1" fill-rule="nonzero"/><g clip-path="url(#id3)"><path stroke-linecap="butt" transform="matrix(0.448067, 0, 0, 0.44943, 30.435766, 162.050351)" fill="none" stroke-linejoin="miter" d="M 689.117797 47.456872 C 689.518824 47.265657 689.850108 46.996219 690.111648 46.639865 C 690.381906 46.283511 690.547548 45.8837 690.608574 45.449122 C 690.678318 45.014544 690.634728 44.588657 690.49524 44.162771 C 690.347034 43.745576 690.111648 43.389222 689.789082 43.085017 C 689.606004 42.972027 689.49267 42.806887 689.44908 42.59829 C 689.396772 42.389693 689.431644 42.198478 689.544978 42.015956 C 690.294726 40.182037 691.035756 38.348118 691.715759 36.505507 C 691.776785 36.253452 691.916273 36.062237 692.134223 35.923172 C 692.352173 35.784107 692.587559 35.749341 692.840381 35.792799 C 694.653724 35.844948 696.475785 35.836257 698.297846 35.844948 C 698.568103 35.85364 698.829643 35.836257 699.335287 35.818874 C 698.664001 35.366913 698.175794 35.027942 697.678868 34.706354 C 687.940867 28.318058 678.194149 21.938453 668.456148 15.56754 C 668.028966 15.280719 667.549477 15.124271 667.035115 15.098196 C 653.522222 14.880907 640.00933 14.681001 626.487719 14.498479 C 626.243616 14.489787 626.00823 14.541936 625.781562 14.654927 L 643.653452 25.397694 L 638.492399 38.443725 C 638.588297 38.487182 638.640605 38.53064 638.675477 38.521949 C 642.764216 36.653263 646.905264 36.705413 651.01144 37.461578 C 656.547367 38.339426 661.804318 40.060355 666.791011 42.624365 C 669.746411 44.058472 672.152578 46.135755 673.992075 48.856213 L 674.366949 47.917524 C 675.875162 44.084547 677.409529 40.268952 678.891588 36.435974 C 678.952614 36.183919 679.083384 35.992705 679.301334 35.85364 C 679.510566 35.705883 679.737234 35.662426 679.990056 35.697192 C 683.346484 35.749341 686.71163 35.758033 690.068058 35.792799 C 690.286008 35.792799 690.503958 35.810182 690.774216 35.818874 C 690.75678 35.992705 690.71319 36.157845 690.6696 36.322984 C 689.946006 38.156903 689.231131 39.999514 688.472665 41.824741 C 688.298305 42.120254 688.045483 42.311469 687.714199 42.389693 C 686.53727 42.502683 685.682907 43.085017 685.151109 44.136696 C 684.872133 44.597349 684.758799 45.101459 684.828543 45.631644 C 684.889569 46.170521 685.107519 46.631174 685.482393 47.022294 C 685.804958 47.361265 685.735215 47.61332 685.499829 47.978365 C 683.433664 51.263775 681.376217 54.540493 679.327488 57.834594 C 679.249026 57.947584 679.188 58.069266 679.083384 58.243097 L 682.945456 59.355617 L 684.462387 56.626467 C 684.723927 57.678146 684.985467 58.529918 685.142391 59.407766 C 685.264443 60.050941 685.604445 60.346454 686.36291 60.302997 L 687.705481 48.013132 C 688.193689 47.865375 688.655743 47.674161 689.117797 47.456872 Z M 689.117797 47.456872 " stroke="#003050" stroke-width="0.677" stroke-opacity="1" stroke-miterlimit="10"/></g><path fill="#d00000" d="M 338.574219 183.628906 C 338.792969 183.558594 339 183.476562 339.207031 183.378906 C 339.386719 183.292969 339.535156 183.171875 339.652344 183.011719 C 339.773438 182.851562 339.847656 182.671875 339.875 182.476562 C 339.90625 182.28125 339.886719 182.089844 339.824219 181.898438 C 339.757812 181.710938 339.652344 181.550781 339.507812 181.414062 C 339.425781 181.363281 339.375 181.289062 339.355469 181.195312 C 339.332031 181.101562 339.347656 181.015625 339.398438 180.933594 C 339.734375 180.109375 340.066406 179.285156 340.371094 178.457031 C 340.398438 178.34375 340.460938 178.257812 340.558594 178.195312 C 340.65625 178.132812 340.761719 178.117188 340.875 178.136719 C 341.6875 178.160156 342.503906 178.15625 343.320312 178.160156 C 343.441406 178.164062 343.558594 178.15625 343.785156 178.148438 C 343.484375 177.945312 343.265625 177.792969 343.042969 177.648438 C 338.679688 174.777344 334.3125 171.910156 329.949219 169.046875 C 329.757812 168.917969 329.542969 168.847656 329.3125 168.835938 C 323.257812 168.738281 317.203125 168.648438 311.144531 168.566406 C 311.035156 168.5625 310.929688 168.585938 310.828125 168.636719 L 318.835938 173.464844 L 316.523438 179.328125 C 316.566406 179.347656 316.589844 179.367188 316.605469 179.363281 C 318.4375 178.523438 320.292969 178.546875 322.132812 178.886719 C 324.613281 179.28125 326.96875 180.054688 329.203125 181.207031 C 330.527344 181.851562 331.605469 182.785156 332.429688 184.007812 L 332.597656 183.585938 C 333.273438 181.863281 333.960938 180.148438 334.625 178.425781 C 334.652344 178.3125 334.710938 178.226562 334.808594 178.164062 C 334.902344 178.097656 335.003906 178.078125 335.117188 178.09375 C 336.621094 178.117188 338.128906 178.121094 339.632812 178.136719 C 339.730469 178.136719 339.828125 178.144531 339.949219 178.148438 C 339.941406 178.226562 339.921875 178.300781 339.902344 178.375 C 339.578125 179.199219 339.257812 180.027344 338.917969 180.847656 C 338.839844 180.980469 338.726562 181.066406 338.578125 181.101562 C 338.050781 181.152344 337.667969 181.414062 337.429688 181.886719 C 337.304688 182.09375 337.253906 182.320312 337.285156 182.558594 C 337.3125 182.800781 337.410156 183.007812 337.578125 183.183594 C 337.722656 183.335938 337.691406 183.449219 337.585938 183.613281 C 336.660156 185.089844 335.738281 186.5625 334.820312 188.042969 C 334.785156 188.09375 334.757812 188.148438 334.710938 188.226562 L 336.441406 188.726562 L 337.121094 187.5 C 337.238281 187.972656 337.355469 188.355469 337.425781 188.75 C 337.480469 189.039062 337.632812 189.171875 337.972656 189.152344 Z M 338.574219 183.628906 " fill-opacity="1" fill-rule="nonzero"/><g clip-path="url(#id4)"><path stroke-linecap="butt" transform="matrix(0.448067, 0, 0, 0.44943, 30.435766, 162.050351)" fill="none" stroke-linejoin="miter" d="M 687.705481 48.013132 C 688.193689 47.856684 688.655743 47.674161 689.117797 47.456872 C 689.518824 47.265657 689.850108 46.996219 690.111648 46.639865 C 690.381906 46.283511 690.547548 45.8837 690.608574 45.449122 C 690.678318 45.014544 690.634728 44.588657 690.49524 44.162771 C 690.347034 43.745576 690.111648 43.389222 689.789082 43.085017 C 689.606004 42.972027 689.49267 42.806887 689.44908 42.59829 C 689.396772 42.389693 689.431644 42.198478 689.544978 42.015956 C 690.294726 40.182037 691.035756 38.348118 691.715759 36.505507 C 691.776785 36.253452 691.916273 36.062237 692.134223 35.923172 C 692.352173 35.784107 692.587559 35.749341 692.840381 35.792799 C 694.653724 35.844948 696.475785 35.836257 698.297846 35.844948 C 698.568103 35.85364 698.829643 35.836257 699.335287 35.818874 C 698.664001 35.366913 698.175794 35.027942 697.678868 34.706354 C 687.940867 28.318058 678.194149 21.938453 668.456148 15.56754 C 668.028966 15.280719 667.549477 15.124271 667.035115 15.098196 C 653.522222 14.880907 640.00933 14.681001 626.487719 14.498479 C 626.243616 14.489787 626.00823 14.541936 625.781562 14.654927 L 643.653452 25.397694 L 638.492399 38.443725 C 638.588297 38.487182 638.640605 38.53064 638.675477 38.521949 C 642.764216 36.653263 646.905264 36.705413 651.01144 37.461578 C 656.547367 38.339426 661.804318 40.060355 666.791011 42.624365 C 669.746411 44.058472 672.152578 46.135755 673.992075 48.856213 L 674.366949 47.917524 C 675.875162 44.084547 677.409529 40.268952 678.891588 36.435974 C 678.952614 36.183919 679.083384 35.992705 679.301334 35.85364 C 679.510566 35.705883 679.737234 35.662426 679.990056 35.697192 C 683.346484 35.749341 686.71163 35.758033 690.068058 35.792799 C 690.286008 35.792799 690.503958 35.810182 690.774216 35.818874 C 690.75678 35.992705 690.71319 36.157845 690.6696 36.322984 C 689.946006 38.156903 689.231131 39.999514 688.472665 41.824741 C 688.298305 42.120254 688.045483 42.311469 687.714199 42.389693 C 686.53727 42.502683 685.682907 43.085017 685.151109 44.136696 C 684.872133 44.597349 684.758799 45.101459 684.828543 45.631644 C 684.889569 46.170521 685.107519 46.631174 685.482393 47.022294 C 685.804958 47.361265 685.735215 47.61332 685.499829 47.978365 C 683.433664 51.263775 681.376217 54.540493 679.327488 57.834594 C 679.249026 57.947584 679.188 58.069266 679.083384 58.243097 L 682.945456 59.355617 L 684.462387 56.626467 C 684.723927 57.678146 684.985467 58.529918 685.142391 59.407766 C 685.264443 60.050941 685.604445 60.346454 686.36291 60.302997 Z M 687.705481 48.013132 " stroke="#003050" stroke-width="0.677" stroke-opacity="1" stroke-miterlimit="10"/></g><path fill="#ffffff" d="M 73.617188 184.796875 C 73.617188 185.472656 73.585938 186.144531 73.519531 186.8125 C 73.453125 187.484375 73.355469 188.148438 73.222656 188.8125 C 73.09375 189.472656 72.929688 190.125 72.734375 190.769531 C 72.539062 191.414062 72.3125 192.046875 72.054688 192.667969 C 71.796875 193.292969 71.511719 193.902344 71.195312 194.496094 C 70.878906 195.089844 70.535156 195.664062 70.160156 196.226562 C 69.789062 196.785156 69.386719 197.328125 68.960938 197.847656 C 68.535156 198.367188 68.085938 198.867188 67.609375 199.34375 C 67.136719 199.820312 66.636719 200.273438 66.117188 200.699219 C 65.601562 201.125 65.0625 201.527344 64.503906 201.902344 C 63.945312 202.277344 63.367188 202.621094 62.777344 202.9375 C 62.183594 203.257812 61.578125 203.542969 60.957031 203.800781 C 60.335938 204.058594 59.703125 204.285156 59.0625 204.484375 C 58.417969 204.679688 57.769531 204.839844 57.109375 204.972656 C 56.449219 205.105469 55.789062 205.203125 55.117188 205.269531 C 54.449219 205.335938 53.78125 205.367188 53.109375 205.367188 C 52.4375 205.367188 51.765625 205.335938 51.097656 205.269531 C 50.429688 205.203125 49.765625 205.105469 49.109375 204.972656 C 48.449219 204.839844 47.796875 204.679688 47.15625 204.484375 C 46.511719 204.285156 45.882812 204.058594 45.261719 203.800781 C 44.640625 203.542969 44.035156 203.257812 43.441406 202.9375 C 42.847656 202.621094 42.273438 202.277344 41.714844 201.902344 C 41.15625 201.527344 40.617188 201.125 40.097656 200.699219 C 39.578125 200.273438 39.082031 199.820312 38.609375 199.34375 C 38.132812 198.867188 37.683594 198.367188 37.257812 197.847656 C 36.828125 197.328125 36.429688 196.785156 36.058594 196.226562 C 35.683594 195.664062 35.339844 195.089844 35.023438 194.496094 C 34.707031 193.902344 34.417969 193.292969 34.160156 192.667969 C 33.90625 192.046875 33.679688 191.414062 33.484375 190.769531 C 33.289062 190.125 33.125 189.472656 32.996094 188.8125 C 32.863281 188.148438 32.765625 187.484375 32.699219 186.8125 C 32.632812 186.144531 32.601562 185.472656 32.601562 184.796875 C 32.601562 184.125 32.632812 183.453125 32.699219 182.78125 C 32.765625 182.109375 32.863281 181.445312 32.996094 180.785156 C 33.125 180.125 33.289062 179.472656 33.484375 178.828125 C 33.679688 178.183594 33.90625 177.546875 34.160156 176.925781 C 34.417969 176.304688 34.707031 175.695312 35.023438 175.101562 C 35.339844 174.507812 35.683594 173.929688 36.058594 173.371094 C 36.429688 172.808594 36.828125 172.269531 37.257812 171.75 C 37.683594 171.226562 38.132812 170.730469 38.609375 170.253906 C 39.082031 169.777344 39.578125 169.324219 40.097656 168.898438 C 40.617188 168.46875 41.15625 168.070312 41.714844 167.695312 C 42.273438 167.320312 42.847656 166.972656 43.441406 166.65625 C 44.035156 166.339844 44.640625 166.050781 45.261719 165.792969 C 45.882812 165.535156 46.511719 165.308594 47.15625 165.113281 C 47.796875 164.917969 48.449219 164.753906 49.109375 164.621094 C 49.765625 164.492188 50.429688 164.390625 51.097656 164.328125 C 51.765625 164.261719 52.4375 164.226562 53.109375 164.226562 C 53.78125 164.226562 54.449219 164.261719 55.117188 164.328125 C 55.789062 164.390625 56.449219 164.492188 57.109375 164.621094 C 57.769531 164.753906 58.417969 164.917969 59.0625 165.113281 C 59.703125 165.308594 60.335938 165.535156 60.957031 165.792969 C 61.578125 166.050781 62.183594 166.339844 62.777344 166.65625 C 63.367188 166.972656 63.945312 167.320312 64.503906 167.695312 C 65.0625 168.070312 65.601562 168.46875 66.117188 168.898438 C 66.636719 169.324219 67.136719 169.777344 67.609375 170.253906 C 68.085938 170.730469 68.535156 171.226562 68.960938 171.75 C 69.386719 172.269531 69.789062 172.808594 70.160156 173.371094 C 70.535156 173.929688 70.878906 174.507812 71.195312 175.101562 C 71.511719 175.695312 71.796875 176.304688 72.054688 176.925781 C 72.3125 177.546875 72.539062 178.183594 72.734375 178.828125 C 72.929688 179.472656 73.09375 180.125 73.222656 180.785156 C 73.355469 181.445312 73.453125 182.109375 73.519531 182.78125 C 73.585938 183.453125 73.617188 184.125 73.617188 184.796875 Z M 73.617188 184.796875 " fill-opacity="1" fill-rule="nonzero"/><g clip-path="url(#id5)"><path fill="#ffffff" d="M 53.097656 207.511719 C 51.984375 207.511719 50.875 207.429688 49.773438 207.265625 C 48.671875 207.101562 47.585938 206.859375 46.519531 206.535156 C 45.453125 206.210938 44.417969 205.808594 43.410156 205.332031 C 42.402344 204.851562 41.433594 204.304688 40.507812 203.683594 C 39.582031 203.0625 38.703125 202.375 37.878906 201.625 C 37.054688 200.875 36.285156 200.066406 35.578125 199.203125 C 34.871094 198.339844 34.234375 197.425781 33.660156 196.46875 C 33.085938 195.507812 32.585938 194.511719 32.160156 193.480469 C 31.734375 192.449219 31.386719 191.390625 31.113281 190.304688 C 30.84375 189.21875 30.652344 188.121094 30.542969 187.007812 C 30.4375 185.898438 30.410156 184.78125 30.464844 183.667969 C 30.519531 182.550781 30.652344 181.441406 30.871094 180.347656 C 31.089844 179.25 31.386719 178.175781 31.761719 177.125 C 32.136719 176.070312 32.585938 175.050781 33.113281 174.066406 C 33.636719 173.082031 34.230469 172.136719 34.894531 171.242188 C 35.558594 170.34375 36.285156 169.5 37.074219 168.707031 C 37.597656 168.183594 38.148438 167.683594 38.722656 167.210938 C 39.296875 166.742188 39.890625 166.296875 40.507812 165.886719 C 41.125 165.472656 41.761719 165.089844 42.414062 164.738281 C 43.070312 164.390625 43.738281 164.074219 44.425781 163.789062 C 45.109375 163.503906 45.808594 163.253906 46.519531 163.039062 C 47.230469 162.824219 47.949219 162.640625 48.675781 162.496094 C 49.402344 162.351562 50.136719 162.242188 50.875 162.171875 C 51.613281 162.097656 52.351562 162.0625 53.09375 162.0625 C 53.835938 162.0625 54.578125 162.101562 55.316406 162.171875 C 56.054688 162.246094 56.785156 162.355469 57.511719 162.5 C 58.242188 162.644531 58.960938 162.828125 59.667969 163.042969 C 60.378906 163.257812 61.078125 163.511719 61.761719 163.792969 C 62.449219 164.078125 63.117188 164.398438 63.769531 164.75 C 64.425781 165.097656 65.0625 165.480469 65.679688 165.894531 C 66.292969 166.308594 66.890625 166.75 67.464844 167.222656 C 68.035156 167.695312 68.585938 168.195312 69.109375 168.71875 C 69.636719 169.246094 70.132812 169.796875 70.601562 170.371094 C 71.074219 170.949219 71.515625 171.542969 71.925781 172.164062 C 72.339844 172.78125 72.71875 173.417969 73.070312 174.074219 C 73.421875 174.730469 73.738281 175.402344 74.019531 176.089844 C 74.304688 176.777344 74.554688 177.476562 74.769531 178.191406 C 74.984375 178.902344 75.167969 179.621094 75.3125 180.351562 C 75.457031 181.082031 75.566406 181.816406 75.636719 182.558594 C 75.710938 183.296875 75.746094 184.042969 75.746094 184.785156 C 75.75 185.527344 75.710938 186.273438 75.640625 187.011719 C 75.566406 187.753906 75.457031 188.488281 75.316406 189.21875 C 75.171875 189.949219 74.992188 190.667969 74.777344 191.378906 C 74.5625 192.09375 74.3125 192.792969 74.027344 193.480469 C 73.746094 194.167969 73.429688 194.839844 73.078125 195.496094 C 72.730469 196.152344 72.347656 196.789062 71.9375 197.410156 C 71.523438 198.027344 71.085938 198.625 70.613281 199.203125 C 70.144531 199.777344 69.648438 200.328125 69.121094 200.855469 C 68.074219 201.914062 66.929688 202.859375 65.691406 203.691406 C 64.457031 204.519531 63.152344 205.222656 61.773438 205.792969 C 60.398438 206.363281 58.980469 206.796875 57.523438 207.085938 C 56.0625 207.375 54.585938 207.515625 53.097656 207.511719 Z M 53.097656 166.371094 C 52.496094 166.371094 51.898438 166.402344 51.300781 166.460938 C 50.699219 166.519531 50.105469 166.609375 49.515625 166.726562 C 48.925781 166.84375 48.34375 166.988281 47.769531 167.164062 C 47.195312 167.339844 46.628906 167.542969 46.074219 167.773438 C 45.519531 168.003906 44.976562 168.261719 44.445312 168.546875 C 43.914062 168.828125 43.402344 169.140625 42.902344 169.472656 C 42.402344 169.808594 41.917969 170.167969 41.453125 170.550781 C 40.988281 170.933594 40.542969 171.335938 40.121094 171.765625 C 39.695312 172.191406 39.292969 172.636719 38.910156 173.101562 C 38.527344 173.570312 38.171875 174.050781 37.835938 174.554688 C 37.503906 175.054688 37.195312 175.570312 36.910156 176.101562 C 36.628906 176.636719 36.371094 177.179688 36.140625 177.738281 C 35.910156 178.292969 35.707031 178.859375 35.535156 179.4375 C 35.359375 180.015625 35.214844 180.597656 35.097656 181.191406 C 34.980469 181.78125 34.890625 182.378906 34.832031 182.976562 C 34.773438 183.578125 34.742188 184.179688 34.742188 184.78125 C 34.742188 185.382812 34.773438 185.984375 34.832031 186.585938 C 34.890625 187.1875 34.980469 187.78125 35.097656 188.375 C 35.214844 188.964844 35.359375 189.546875 35.535156 190.125 C 35.707031 190.703125 35.910156 191.269531 36.140625 191.828125 C 36.371094 192.382812 36.628906 192.929688 36.910156 193.460938 C 37.195312 193.992188 37.503906 194.507812 37.835938 195.007812 C 38.171875 195.511719 38.527344 195.996094 38.910156 196.460938 C 39.292969 196.925781 39.695312 197.371094 40.121094 197.800781 C 40.542969 198.226562 40.988281 198.628906 41.453125 199.011719 C 41.917969 199.394531 42.402344 199.753906 42.902344 200.089844 C 43.402344 200.425781 43.914062 200.734375 44.445312 201.019531 C 44.976562 201.300781 45.519531 201.558594 46.074219 201.789062 C 46.628906 202.019531 47.195312 202.222656 47.769531 202.398438 C 48.34375 202.574219 48.925781 202.71875 49.515625 202.835938 C 50.105469 202.957031 50.699219 203.042969 51.300781 203.101562 C 51.898438 203.160156 52.496094 203.191406 53.097656 203.191406 C 53.699219 203.191406 54.296875 203.160156 54.898438 203.101562 C 55.496094 203.042969 56.089844 202.957031 56.679688 202.835938 C 57.269531 202.71875 57.851562 202.574219 58.425781 202.398438 C 59 202.222656 59.566406 202.019531 60.121094 201.789062 C 60.675781 201.558594 61.21875 201.300781 61.75 201.019531 C 62.28125 200.734375 62.796875 200.425781 63.296875 200.089844 C 63.792969 199.753906 64.277344 199.394531 64.742188 199.011719 C 65.207031 198.628906 65.652344 198.226562 66.078125 197.800781 C 66.5 197.371094 66.90625 196.925781 67.285156 196.460938 C 67.667969 195.996094 68.023438 195.511719 68.359375 195.007812 C 68.691406 194.507812 69 193.992188 69.285156 193.460938 C 69.566406 192.929688 69.824219 192.382812 70.054688 191.828125 C 70.285156 191.269531 70.488281 190.703125 70.660156 190.125 C 70.835938 189.546875 70.980469 188.964844 71.097656 188.375 C 71.214844 187.78125 71.304688 187.1875 71.363281 186.585938 C 71.421875 185.984375 71.453125 185.382812 71.453125 184.78125 C 71.453125 184.179688 71.421875 183.578125 71.363281 182.976562 C 71.300781 182.378906 71.214844 181.78125 71.097656 181.191406 C 70.976562 180.601562 70.832031 180.015625 70.65625 179.441406 C 70.480469 178.863281 70.28125 178.296875 70.050781 177.738281 C 69.820312 177.183594 69.5625 176.640625 69.277344 176.105469 C 68.996094 175.574219 68.6875 175.058594 68.351562 174.558594 C 68.019531 174.058594 67.660156 173.574219 67.28125 173.109375 C 66.898438 172.640625 66.496094 172.195312 66.070312 171.769531 C 65.644531 171.34375 65.199219 170.9375 64.734375 170.558594 C 64.273438 170.175781 63.789062 169.816406 63.289062 169.480469 C 62.789062 169.144531 62.277344 168.835938 61.746094 168.550781 C 61.214844 168.265625 60.671875 168.007812 60.117188 167.777344 C 59.5625 167.546875 59 167.34375 58.421875 167.167969 C 57.847656 166.992188 57.265625 166.847656 56.675781 166.730469 C 56.089844 166.609375 55.496094 166.523438 54.894531 166.460938 C 54.296875 166.402344 53.699219 166.371094 53.097656 166.371094 Z M 53.097656 166.371094 " fill-opacity="1" fill-rule="nonzero"/></g><path fill="#add8e6" d="M 71.675781 184.78125 C 71.675781 185.390625 71.648438 186 71.585938 186.609375 C 71.527344 187.214844 71.4375 187.820312 71.320312 188.417969 C 71.203125 189.015625 71.054688 189.605469 70.878906 190.191406 C 70.699219 190.773438 70.496094 191.347656 70.261719 191.914062 C 70.03125 192.476562 69.769531 193.027344 69.484375 193.566406 C 69.195312 194.105469 68.882812 194.628906 68.546875 195.136719 C 68.207031 195.640625 67.847656 196.132812 67.460938 196.605469 C 67.074219 197.074219 66.664062 197.527344 66.234375 197.960938 C 65.804688 198.390625 65.355469 198.800781 64.882812 199.1875 C 64.414062 199.574219 63.925781 199.9375 63.421875 200.277344 C 62.914062 200.617188 62.394531 200.929688 61.855469 201.214844 C 61.320312 201.503906 60.769531 201.765625 60.207031 202 C 59.644531 202.230469 59.074219 202.4375 58.492188 202.613281 C 57.910156 202.792969 57.320312 202.941406 56.722656 203.058594 C 56.125 203.179688 55.523438 203.269531 54.917969 203.328125 C 54.3125 203.386719 53.707031 203.417969 53.097656 203.417969 C 52.488281 203.417969 51.882812 203.386719 51.277344 203.328125 C 50.671875 203.269531 50.070312 203.179688 49.472656 203.058594 C 48.875 202.941406 48.289062 202.792969 47.703125 202.613281 C 47.121094 202.4375 46.550781 202.230469 45.988281 202 C 45.425781 201.765625 44.875 201.503906 44.339844 201.214844 C 43.804688 200.929688 43.28125 200.617188 42.777344 200.277344 C 42.269531 199.9375 41.78125 199.574219 41.3125 199.1875 C 40.839844 198.800781 40.390625 198.390625 39.960938 197.960938 C 39.53125 197.527344 39.121094 197.074219 38.734375 196.605469 C 38.351562 196.132812 37.988281 195.640625 37.648438 195.136719 C 37.3125 194.628906 37 194.105469 36.710938 193.566406 C 36.425781 193.027344 36.167969 192.476562 35.933594 191.914062 C 35.699219 191.347656 35.496094 190.773438 35.320312 190.191406 C 35.140625 189.605469 34.996094 189.015625 34.875 188.417969 C 34.757812 187.820312 34.667969 187.214844 34.609375 186.609375 C 34.546875 186 34.519531 185.390625 34.519531 184.78125 C 34.519531 184.171875 34.546875 183.5625 34.609375 182.953125 C 34.667969 182.347656 34.757812 181.746094 34.875 181.144531 C 34.996094 180.546875 35.140625 179.957031 35.320312 179.371094 C 35.496094 178.789062 35.699219 178.214844 35.933594 177.648438 C 36.167969 177.085938 36.425781 176.535156 36.710938 175.996094 C 37 175.457031 37.3125 174.9375 37.648438 174.429688 C 37.988281 173.921875 38.351562 173.429688 38.734375 172.960938 C 39.121094 172.488281 39.53125 172.035156 39.960938 171.605469 C 40.390625 171.171875 40.839844 170.761719 41.3125 170.375 C 41.78125 169.988281 42.269531 169.625 42.777344 169.285156 C 43.28125 168.949219 43.804688 168.632812 44.339844 168.347656 C 44.875 168.058594 45.425781 167.796875 45.988281 167.566406 C 46.550781 167.332031 47.121094 167.125 47.703125 166.949219 C 48.289062 166.769531 48.875 166.625 49.472656 166.503906 C 50.070312 166.386719 50.671875 166.296875 51.277344 166.234375 C 51.882812 166.175781 52.488281 166.144531 53.097656 166.144531 C 53.707031 166.144531 54.3125 166.175781 54.917969 166.234375 C 55.523438 166.296875 56.125 166.386719 56.722656 166.503906 C 57.320312 166.625 57.910156 166.769531 58.492188 166.949219 C 59.074219 167.125 59.644531 167.332031 60.207031 167.566406 C 60.769531 167.796875 61.320312 168.058594 61.855469 168.347656 C 62.394531 168.632812 62.914062 168.949219 63.421875 169.285156 C 63.925781 169.625 64.414062 169.988281 64.882812 170.375 C 65.355469 170.761719 65.804688 171.171875 66.234375 171.605469 C 66.664062 172.035156 67.074219 172.488281 67.460938 172.960938 C 67.847656 173.429688 68.207031 173.921875 68.546875 174.429688 C 68.882812 174.9375 69.195312 175.457031 69.484375 175.996094 C 69.769531 176.535156 70.03125 177.085938 70.261719 177.648438 C 70.496094 178.214844 70.699219 178.789062 70.878906 179.371094 C 71.054688 179.957031 71.203125 180.546875 71.320312 181.144531 C 71.4375 181.746094 71.527344 182.347656 71.585938 182.953125 C 71.648438 183.5625 71.675781 184.171875 71.675781 184.78125 Z M 71.675781 184.78125 " fill-opacity="1" fill-rule="nonzero"/><path fill="#003050" d="M 53.109375 203.644531 C 52.492188 203.644531 51.878906 203.617188 51.265625 203.554688 C 50.65625 203.496094 50.046875 203.402344 49.441406 203.285156 C 48.839844 203.164062 48.242188 203.011719 47.65625 202.835938 C 47.066406 202.65625 46.488281 202.449219 45.917969 202.210938 C 45.347656 201.976562 44.792969 201.710938 44.25 201.421875 C 43.707031 201.128906 43.179688 200.8125 42.667969 200.46875 C 42.15625 200.125 41.664062 199.757812 41.1875 199.367188 C 40.710938 198.976562 40.257812 198.5625 39.820312 198.125 C 39.386719 197.6875 38.972656 197.230469 38.582031 196.753906 C 38.191406 196.277344 37.828125 195.78125 37.484375 195.269531 C 37.144531 194.757812 36.828125 194.226562 36.535156 193.683594 C 36.246094 193.136719 35.984375 192.582031 35.75 192.011719 C 35.511719 191.441406 35.304688 190.859375 35.128906 190.269531 C 34.949219 189.679688 34.800781 189.082031 34.679688 188.476562 C 34.558594 187.871094 34.46875 187.257812 34.410156 186.644531 C 34.347656 186.03125 34.316406 185.414062 34.316406 184.796875 C 34.316406 184.179688 34.347656 183.566406 34.410156 182.949219 C 34.46875 182.335938 34.558594 181.726562 34.679688 181.121094 C 34.800781 180.515625 34.949219 179.917969 35.128906 179.328125 C 35.304688 178.734375 35.511719 178.15625 35.75 177.585938 C 35.984375 177.015625 36.246094 176.457031 36.535156 175.914062 C 36.828125 175.367188 37.144531 174.839844 37.484375 174.328125 C 37.828125 173.8125 38.191406 173.316406 38.582031 172.839844 C 38.972656 172.363281 39.386719 171.90625 39.820312 171.46875 C 40.257812 171.035156 40.710938 170.621094 41.1875 170.226562 C 41.664062 169.835938 42.15625 169.46875 42.667969 169.125 C 43.179688 168.785156 43.707031 168.464844 44.25 168.175781 C 44.792969 167.882812 45.347656 167.621094 45.917969 167.382812 C 46.488281 167.148438 47.066406 166.941406 47.65625 166.761719 C 48.242188 166.582031 48.839844 166.433594 49.441406 166.3125 C 50.046875 166.191406 50.65625 166.101562 51.265625 166.039062 C 51.878906 165.980469 52.492188 165.949219 53.109375 165.949219 C 53.722656 165.949219 54.339844 165.980469 54.949219 166.039062 C 55.5625 166.101562 56.171875 166.191406 56.773438 166.3125 C 57.378906 166.433594 57.976562 166.582031 58.5625 166.761719 C 59.152344 166.941406 59.730469 167.148438 60.300781 167.382812 C 60.867188 167.621094 61.425781 167.882812 61.96875 168.175781 C 62.511719 168.464844 63.035156 168.785156 63.546875 169.125 C 64.058594 169.46875 64.554688 169.835938 65.03125 170.226562 C 65.503906 170.621094 65.960938 171.035156 66.394531 171.46875 C 66.832031 171.90625 67.246094 172.363281 67.632812 172.839844 C 68.023438 173.316406 68.390625 173.8125 68.734375 174.328125 C 69.074219 174.839844 69.390625 175.367188 69.679688 175.914062 C 69.972656 176.457031 70.234375 177.015625 70.46875 177.585938 C 70.703125 178.15625 70.914062 178.734375 71.089844 179.328125 C 71.269531 179.917969 71.417969 180.515625 71.539062 181.121094 C 71.660156 181.726562 71.75 182.335938 71.808594 182.949219 C 71.871094 183.566406 71.898438 184.179688 71.898438 184.796875 C 71.898438 185.414062 71.867188 186.03125 71.808594 186.644531 C 71.746094 187.257812 71.65625 187.867188 71.535156 188.472656 C 71.414062 189.078125 71.265625 189.675781 71.085938 190.265625 C 70.90625 190.855469 70.699219 191.4375 70.464844 192.007812 C 70.226562 192.578125 69.964844 193.132812 69.675781 193.679688 C 69.382812 194.222656 69.070312 194.75 68.726562 195.265625 C 68.382812 195.777344 68.019531 196.273438 67.628906 196.75 C 67.238281 197.226562 66.824219 197.683594 66.390625 198.121094 C 65.953125 198.554688 65.5 198.96875 65.023438 199.359375 C 64.546875 199.753906 64.054688 200.121094 63.542969 200.460938 C 63.03125 200.804688 62.503906 201.121094 61.960938 201.414062 C 61.421875 201.707031 60.863281 201.96875 60.296875 202.207031 C 59.726562 202.441406 59.148438 202.648438 58.5625 202.828125 C 57.972656 203.007812 57.375 203.160156 56.773438 203.28125 C 56.171875 203.402344 55.5625 203.492188 54.949219 203.554688 C 54.339844 203.613281 53.722656 203.644531 53.109375 203.644531 Z M 53.109375 167.300781 C 52.539062 167.300781 51.96875 167.328125 51.398438 167.382812 C 50.832031 167.441406 50.265625 167.523438 49.707031 167.636719 C 49.144531 167.75 48.59375 167.886719 48.046875 168.054688 C 47.5 168.21875 46.960938 168.414062 46.433594 168.632812 C 45.90625 168.851562 45.390625 169.097656 44.886719 169.367188 C 44.382812 169.636719 43.890625 169.929688 43.417969 170.25 C 42.941406 170.566406 42.484375 170.910156 42.042969 171.273438 C 41.601562 171.636719 41.179688 172.019531 40.773438 172.425781 C 40.371094 172.832031 39.988281 173.253906 39.625 173.699219 C 39.261719 174.140625 38.921875 174.601562 38.605469 175.078125 C 38.285156 175.554688 37.992188 176.042969 37.722656 176.550781 C 37.457031 177.054688 37.210938 177.574219 36.992188 178.101562 C 36.773438 178.632812 36.582031 179.171875 36.414062 179.71875 C 36.25 180.265625 36.109375 180.824219 36 181.382812 C 35.886719 181.945312 35.804688 182.511719 35.75 183.082031 C 35.691406 183.652344 35.664062 184.226562 35.664062 184.796875 C 35.664062 185.371094 35.691406 185.941406 35.75 186.511719 C 35.804688 187.082031 35.886719 187.648438 36 188.210938 C 36.109375 188.773438 36.25 189.328125 36.414062 189.878906 C 36.582031 190.425781 36.773438 190.964844 36.992188 191.492188 C 37.210938 192.023438 37.453125 192.539062 37.722656 193.046875 C 37.992188 193.550781 38.285156 194.042969 38.605469 194.519531 C 38.921875 194.996094 39.261719 195.457031 39.625 195.898438 C 39.988281 196.339844 40.371094 196.765625 40.773438 197.171875 C 41.179688 197.574219 41.601562 197.960938 42.042969 198.324219 C 42.484375 198.6875 42.941406 199.027344 43.417969 199.347656 C 43.890625 199.664062 44.382812 199.960938 44.886719 200.230469 C 45.390625 200.5 45.90625 200.746094 46.433594 200.964844 C 46.960938 201.183594 47.5 201.375 48.046875 201.542969 C 48.59375 201.707031 49.144531 201.847656 49.707031 201.960938 C 50.265625 202.070312 50.832031 202.15625 51.398438 202.210938 C 51.96875 202.265625 52.539062 202.296875 53.109375 202.296875 C 53.679688 202.296875 54.25 202.265625 54.820312 202.210938 C 55.386719 202.15625 55.953125 202.070312 56.511719 201.960938 C 57.074219 201.847656 57.625 201.707031 58.171875 201.542969 C 58.71875 201.375 59.257812 201.183594 59.785156 200.964844 C 60.3125 200.746094 60.828125 200.5 61.332031 200.230469 C 61.835938 199.960938 62.324219 199.664062 62.800781 199.347656 C 63.277344 199.027344 63.734375 198.6875 64.175781 198.324219 C 64.617188 197.960938 65.039062 197.574219 65.445312 197.171875 C 65.847656 196.765625 66.230469 196.339844 66.59375 195.898438 C 66.957031 195.457031 67.296875 194.996094 67.613281 194.519531 C 67.929688 194.042969 68.222656 193.550781 68.492188 193.046875 C 68.761719 192.539062 69.007812 192.023438 69.226562 191.492188 C 69.445312 190.964844 69.636719 190.425781 69.800781 189.878906 C 69.96875 189.328125 70.105469 188.773438 70.21875 188.210938 C 70.328125 187.648438 70.414062 187.082031 70.46875 186.511719 C 70.527344 185.941406 70.554688 185.371094 70.554688 184.796875 C 70.554688 184.226562 70.523438 183.652344 70.46875 183.082031 C 70.410156 182.511719 70.328125 181.949219 70.214844 181.386719 C 70.101562 180.824219 69.964844 180.269531 69.796875 179.722656 C 69.632812 179.171875 69.4375 178.632812 69.21875 178.105469 C 69 177.574219 68.757812 177.058594 68.488281 176.554688 C 68.21875 176.046875 67.925781 175.558594 67.609375 175.082031 C 67.289062 174.605469 66.949219 174.144531 66.585938 173.703125 C 66.226562 173.261719 65.84375 172.835938 65.4375 172.429688 C 65.035156 172.027344 64.613281 171.640625 64.171875 171.277344 C 63.730469 170.914062 63.269531 170.574219 62.796875 170.253906 C 62.320312 169.9375 61.832031 169.640625 61.328125 169.371094 C 60.824219 169.101562 60.308594 168.855469 59.78125 168.636719 C 59.253906 168.417969 58.71875 168.226562 58.171875 168.058594 C 57.625 167.890625 57.070312 167.753906 56.511719 167.640625 C 55.949219 167.527344 55.386719 167.441406 54.816406 167.386719 C 54.25 167.328125 53.679688 167.300781 53.109375 167.300781 Z M 53.109375 167.300781 " fill-opacity="1" fill-rule="nonzero"/><path fill="#003050" d="M 53.066406 201.421875 L 53.554688 202.675781 L 52.582031 202.675781 Z M 53.066406 201.421875 " fill-opacity="1" fill-rule="nonzero"/><path fill="#003050" d="M 53.949219 202.945312 L 52.1875 202.945312 L 53.066406 200.675781 Z M 52.972656 202.40625 L 53.160156 202.40625 L 53.066406 202.167969 Z M 52.972656 202.40625 " fill-opacity="1" fill-rule="nonzero"/><path fill="#003050" d="M 53.066406 168.257812 L 53.554688 167.003906 L 52.582031 167.003906 Z M 53.066406 168.257812 " fill-opacity="1" fill-rule="nonzero"/><path fill="#003050" d="M 53.066406 169.003906 L 52.1875 166.734375 L 53.949219 166.734375 Z M 52.972656 167.273438 L 53.066406 167.515625 L 53.160156 167.273438 Z M 52.972656 167.273438 " fill-opacity="1" fill-rule="nonzero"/><path fill="#003050" d="M 69.683594 184.621094 L 70.933594 184.132812 L 70.933594 185.109375 Z M 69.683594 184.621094 " fill-opacity="1" fill-rule="nonzero"/><path fill="#003050" d="M 71.203125 185.503906 L 68.9375 184.621094 L 71.203125 183.738281 Z M 70.425781 184.621094 L 70.664062 184.714844 L 70.664062 184.53125 Z M 70.425781 184.621094 " fill-opacity="1" fill-rule="nonzero"/><path fill="#003050" d="M 36.535156 184.621094 L 35.285156 184.132812 L 35.285156 185.109375 Z M 36.535156 184.621094 " fill-opacity="1" fill-rule="nonzero"/><path fill="#003050" d="M 35.015625 185.503906 L 35.015625 183.738281 L 37.277344 184.621094 Z M 35.554688 184.53125 L 35.554688 184.714844 L 35.792969 184.621094 Z M 35.554688 184.53125 " fill-opacity="1" fill-rule="nonzero"/><path fill="#f2f2f2" d="M 61.105469 192.554688 L 55.363281 182.570312 L 50.933594 187.074219 L 60.964844 192.699219 C 61.011719 192.726562 61.050781 192.71875 61.089844 192.683594 C 61.128906 192.644531 61.132812 192.601562 61.105469 192.554688 Z M 61.105469 192.554688 " fill-opacity="1" fill-rule="nonzero"/><path fill="#f2f2f2" d="M 61.203125 192.65625 C 61.195312 192.691406 61.179688 192.71875 61.152344 192.746094 C 61.085938 192.816406 61.007812 192.828125 60.921875 192.777344 L 50.785156 187.09375 L 55.382812 182.421875 L 61.183594 192.511719 C 61.210938 192.554688 61.21875 192.605469 61.203125 192.65625 Z M 61.105469 192.554688 Z M 51.078125 187.054688 L 61.007812 192.621094 C 61.015625 192.625 61.019531 192.625 61.027344 192.617188 C 61.03125 192.613281 61.035156 192.609375 61.027344 192.601562 L 55.34375 182.71875 Z M 51.078125 187.054688 " fill-opacity="1" fill-rule="nonzero"/><path fill="#d00000" d="M 45.066406 176.972656 L 50.8125 186.960938 L 55.242188 182.457031 L 45.210938 176.832031 C 45.164062 176.804688 45.121094 176.808594 45.085938 176.847656 C 45.046875 176.886719 45.042969 176.929688 45.066406 176.972656 Z M 45.066406 176.972656 " fill-opacity="1" fill-rule="nonzero"/><path fill="#d00000" d="M 55.386719 182.433594 L 50.792969 187.109375 L 44.988281 177.019531 C 44.941406 176.933594 44.949219 176.855469 45.019531 176.785156 C 45.089844 176.714844 45.167969 176.703125 45.253906 176.75 Z M 50.828125 186.8125 L 55.09375 182.476562 L 45.164062 176.910156 C 45.160156 176.902344 45.152344 176.90625 45.148438 176.910156 C 45.140625 176.917969 45.140625 176.921875 45.144531 176.929688 Z M 50.828125 186.8125 " fill-opacity="1" fill-rule="nonzero"/></svg>