<svg id="Layer_1" data-name="Layer 1" xmlns="http://www.w3.org/2000/svg" width="700.3934" height="113.4772" viewBox="0 0 700.3934 113.4772"><defs><style>.cls-1{fill:#f2f2f7;stroke:#000;stroke-width:0.2286px;}.cls-1,.cls-4{stroke-miterlimit:10;}.cls-2,.cls-4{fill:#d00000;}.cls-3{fill:#003050;}.cls-4{stroke:#003050;stroke-width:0.6769px;}.cls-5{fill:#fff;}.cls-6{fill:#add8e6;}.cls-7{fill:#f2f2f2;}</style></defs><rect class="cls-1" width="699.3337" height="113.4772"/><path class="cls-2" d="M181.0755,4.4235V57.1412c0,20.1133-10.832,30.2032-30.8564,30.2032s-30.8565-10.09-30.8565-30.2032V4.4235h17.1827V51.6129c0,14.0742,4.3662,18.6445,13.6738,18.6445s13.6738-4.57,13.6738-18.6445V4.4235Z"/><path class="cls-3" d="M211.1214,84.3287H195.0492V56.2369c0-16.8613,8.1347-23.47,26.4341-23.47s26.434,6.6084,26.434,23.47V84.3287H231.8451v-23.77c0-10.29-2.814-14.8252-10.3618-14.8252s-10.3619,4.5352-10.3619,14.8252Z"/><path class="cls-3" d="M261.4388,60.108c0-15.1445,10.2617-27.3408,24.2417-27.3408a20.6837,20.6837,0,0,1,15.5488,6.3955l1.2173,1.2852v-6.13h16.2827V66.9254c-.0874,15.625-4.0024,18.7051-16.0815,18.8633v-5.99H301.412l-.2134.2548a20.3126,20.3126,0,0,1-15.5181,7.2911C271.6971,87.3444,261.4388,75.2487,261.4388,60.108Zm17.1245.001c0,7.8584,4.92,13.5654,12.18,13.5654,6.9761,0,12.105-5.6972,12.105-13.5654,0-7.9873-5.4155-13.6719-12.105-13.6719C283.9637,46.4371,278.5633,52.1188,278.5633,60.109Z"/><path class="cls-3" d="M349.5809,35.0289,362.15,64.1608l12.5684-29.1319h19.0889L367.5223,85.0826H356.7772L330.492,35.0289Z"/><path class="cls-3" d="M407.3348,84.3287v-51.36h16.584v51.36Zm.7031-68.5976a7.7952,7.7952,0,1,1,7.79,8.0908A8.0535,8.0535,0,0,1,408.0379,15.7311Z"/><path class="cls-3" d="M439.53,99.611l13.1953-6.5225c2.125,3.1855,6.4268,6.417,13.6182,6.417,4.918,0,12.7383-3.1025,12.7383-12.8145V80.9147l-1.2549,1.4511c-3.4228,3.9541-8.9238,4.9786-15.6172,4.9786-14.06,0-24.3193-12.0957-24.3193-27.2364,0-15.1445,10.2627-27.3408,24.3193-27.3408a20.9338,20.9338,0,0,1,15.3721,6.0967l.208.207h1.292v-4.748c7.4131.0332,15.3945-.4121,16.1,15.15V87.9977c0,16.7861-12.2588,25.48-28.8379,25.48C456.2577,113.4772,444.8846,111.0875,439.53,99.611Zm15.5176-39.502c0,7.8584,4.9512,13.5654,12.2578,13.5654,7.0205,0,12.1612-5.6972,12.1612-13.5654,0-7.9873-5.43-13.6719-12.1612-13.6719C460.4823,46.4371,455.0477,52.1188,455.0477,60.109Zm40.1338-10.3379.001.0176-.001-.0352Z"/><path class="cls-3" d="M508.4012,60.108c0-15.1445,10.2617-27.3408,24.2412-27.3408a20.6852,20.6852,0,0,1,15.55,6.3955l1.2168,1.2852v-6.13h16.2823V66.9254c-.087,15.625-4.002,18.7051-16.0811,18.8633v-5.99h-1.2353l-.2139.2548a20.3136,20.3136,0,0,1-15.5186,7.2911C518.66,87.3444,508.4012,75.2487,508.4012,60.108Zm17.124.001c0,7.8584,4.92,13.5654,12.1807,13.5654,6.9766,0,12.1055-5.6972,12.1055-13.5654,0-7.9873-5.416-13.6719-12.1055-13.6719C530.9266,46.4371,525.5252,52.1188,525.5252,60.109Z"/><path class="cls-3" d="M585.1932,34.6842V15.0778h14.8545V34.79h10.7041c-.373,5.82,1.2256,12.3271-10.0332,12.3838l-.6709.0039V64.7692c0,4.9658,1.2051,8.1015,4.6943,8.1015a8.43,8.43,0,0,0,3.9942-1.19l3.9453,12.82a28.97,28.97,0,0,1-12.1484,2.8438c-12.1045,0-15.34-10.1592-15.34-19.35V47.0026h-7.4375V34.6842Z"/><path class="cls-3" d="M677.1805,62.0641H640.9833v.7822c0,8.8174,6.8085,11.834,11.3193,11.834,5.4219,0,8.1641-1.24,12.0947-5.5586l11.5889,5.8135c-5.7676,9.0273-14.4649,12.4092-24.9258,12.4092-14.4326,0-26.8184-12.2911-26.8184-27.2364,0-15.0517,12.3868-27.3408,26.8184-27.3408,14.6084,0,26.15,9.2549,26.15,27.5772C677.2108,60.81,677.201,61.6754,677.1805,62.0641Zm-35.7666-9.3955h20.22l-.122-.8643c-.8145-5.7851-4.6953-8.9863-9.9737-8.9863-6.1533,0-9.7646,3.9287-10.0752,9.0488Z"/><path class="cls-4" d="M689.1173,47.4579a2.6734,2.6734,0,0,0,.6721-4.371.788.788,0,0,1-.2467-1.0743c.7515-1.8291,1.4906-3.6629,2.1762-5.51a.954.954,0,0,1,1.1183-.706c1.8161.05,3.6389.0414,5.4593.0521.2674.0016.5363-.015,1.0372-.03-.6723-.4531-1.16-.79-1.6573-1.116q-14.6055-9.5773-29.2227-19.1395a2.8173,2.8173,0,0,0-1.4147-.469q-20.2725-.3229-40.55-.5919a1.38,1.38,0,0,0-.7059.1566l17.8738,10.7389-5.166,13.0457c.0956.0415.1521.0889.1815.0755,4.093-1.8661,8.23-1.81,12.3412-1.06a52.4643,52.4643,0,0,1,15.7786,5.1655,18.3674,18.3674,0,0,1,7.1994,6.2308l.3726-.9409c1.5151-3.826,3.0432-7.6483,4.5309-11.482a.9651.9651,0,0,1,1.0944-.7328c3.3577.0523,6.72.0625,10.08.0889.2179.0017.4344.0178.708.03a3.4344,3.4344,0,0,1-.11.5018c-.7222,1.8379-1.4329,3.68-2.1993,5.5038a1.1929,1.1929,0,0,1-.7554.5667,3.2439,3.2439,0,0,0-2.5658,1.7465,2.3782,2.3782,0,0,0,.3364,2.8815c.3245.3465.2476.5949.015.9637q-3.1015,4.9177-6.175,9.85c-.0726.116-.1362.2366-.2372.413l3.8548,1.1138,1.5255-2.7323c.26,1.0472.5152,1.9017.6763,2.7783.1192.6492.46.9447,1.2237.8977l1.34-12.2892A10.829,10.829,0,0,0,689.1173,47.4579Z"/><path class="cls-4" d="M687.7061,48.0129a10.829,10.829,0,0,0,1.4112-.555,2.6734,2.6734,0,0,0,.6721-4.371.788.788,0,0,1-.2467-1.0743c.7515-1.8291,1.4906-3.6629,2.1762-5.51a.954.954,0,0,1,1.1183-.706c1.8161.05,3.6389.0414,5.4593.0521.2674.0016.5363-.015,1.0372-.03-.6723-.4531-1.16-.79-1.6573-1.116q-14.6055-9.5773-29.2227-19.1395a2.8173,2.8173,0,0,0-1.4147-.469q-20.2725-.3229-40.55-.5919a1.38,1.38,0,0,0-.7059.1566l17.8738,10.7389-5.166,13.0457c.0956.0415.1521.0889.1815.0755,4.093-1.8661,8.23-1.81,12.3412-1.06a52.4643,52.4643,0,0,1,15.7786,5.1655,18.3674,18.3674,0,0,1,7.1994,6.2308l.3726-.9409c1.5151-3.826,3.0432-7.6483,4.5309-11.482a.9651.9651,0,0,1,1.0944-.7328c3.3577.0523,6.72.0625,10.08.0889.2179.0017.4344.0178.708.03a3.4344,3.4344,0,0,1-.11.5018c-.7222,1.8379-1.4329,3.68-2.1993,5.5038a1.1929,1.1929,0,0,1-.7554.5667,3.2439,3.2439,0,0,0-2.5658,1.7465,2.3782,2.3782,0,0,0,.3364,2.8815c.3245.3465.2476.5949.015.9637q-3.1015,4.9177-6.175,9.85c-.0726.116-.1362.2366-.2372.413l3.8548,1.1138,1.5255-2.7323c.26,1.0472.5152,1.9017.6763,2.7783.1192.6492.46.9447,1.2237.8977Z"/><circle class="cls-5" cx="50.6025" cy="50.6143" r="45.7703"/><path class="cls-5" d="M50.5777,101.1555A50.5777,50.5777,0,0,1,14.8139,14.8139,50.5777,50.5777,0,0,1,86.3416,86.3415,50.2464,50.2464,0,0,1,50.5777,101.1555Zm0-91.5407A40.963,40.963,0,1,0,91.5406,50.5777,41.0093,41.0093,0,0,0,50.5777,9.6148Z"/><circle class="cls-6" cx="50.5777" cy="50.5777" r="41.4647"/><path class="cls-3" d="M50.6025,92.5517A41.9375,41.9375,0,1,1,92.54,50.6143,41.985,41.985,0,0,1,50.6025,92.5517Zm0-80.87A38.9328,38.9328,0,1,0,89.5353,50.6143,38.977,38.977,0,0,0,50.6025,11.6814Z"/><polygon class="cls-3" points="50.509 87.602 51.595 90.394 49.423 90.394 50.509 87.602"/><path class="cls-3" d="M52.4735,90.9952H48.5443l1.9646-5.051Zm-2.1723-1.2019h.4153l-.2076-.5338Z"/><polygon class="cls-3" points="50.509 13.814 51.595 11.022 49.423 11.022 50.509 13.814"/><path class="cls-3" d="M50.5089,15.4716l-1.9646-5.051h3.9292Zm-.2077-3.8491.2077.5337.2076-.5337Z"/><polygon class="cls-3" points="87.59 50.224 90.382 49.138 90.382 51.311 87.59 50.224"/><path class="cls-3" d="M90.9833,52.1893l-5.0506-1.9649L90.9833,48.26Zm-1.7357-1.9649.5338.2077v-.4153Z"/><polygon class="cls-3" points="13.615 50.224 10.823 49.138 10.823 51.311 13.615 50.224"/><path class="cls-3" d="M10.2216,52.1893V48.26l5.0509,1.9646Zm1.2019-2.1725v.4153l.5338-.2077Z"/><path class="cls-7" d="M68.45,67.8767l-12.8173-22.22L45.7432,55.6792,68.1337,68.1968A.2332.2332,0,0,0,68.45,67.8767Z"/><path class="cls-7" d="M68.67,68.096a.4342.4342,0,0,1-.1135.2016.43.43,0,0,1-.52.0741l-22.62-12.646L55.6744,45.3284,68.6232,67.7766A.431.431,0,0,1,68.67,68.096Zm-.22-.2193,0-.0019ZM46.07,55.6327l22.161,12.3892a.0289.0289,0,0,0,.04-.0056.0285.0285,0,0,0,.0051-.04L55.59,45.9842Z"/><path class="cls-2" d="M32.6562,33.2057l12.8173,22.22,9.8892-10.023L32.9721,32.8855A.2333.2333,0,0,0,32.6562,33.2057Z"/><path class="cls-2" d="M55.69,45.3566,45.4314,55.754,32.4827,33.3059a.4335.4335,0,0,1,.5871-.5951ZM45.5156,55.0982l9.52-9.6486L32.8743,33.06a.0288.0288,0,0,0-.0395.0057.0292.0292,0,0,0-.005.04Z"/></svg>