<svg id="Layer_1" data-name="Layer 1" xmlns="http://www.w3.org/2000/svg" width="753.5801" height="502.6061" viewBox="0 0 753.5801 502.6061"><defs><style>.cls-1{fill:#f2f2f7;stroke:#000;stroke-width:0.2286px;}.cls-1,.cls-4{stroke-miterlimit:10;}.cls-2,.cls-4{fill:#d00000;}.cls-3{fill:#003050;}.cls-4{stroke:#003050;stroke-width:0.878px;}.cls-5{fill:#fff;}.cls-6{fill:#add8e6;}.cls-7{fill:#f2f2f2;}</style></defs><rect class="cls-1" width="753.5801" height="502.6061"/><path class="cls-2" d="M80.0479,361.153v68.3809c0,26.0879-14.0508,39.1758-40.0245,39.1758S0,455.6218,0,429.5339V361.153H22.2871v61.209c0,18.2559,5.6631,24.1836,17.7363,24.1836S57.76,440.6179,57.76,422.362V361.153Z"/><path class="cls-3" d="M119.0107,464.7975H98.1641V428.36c0-21.871,10.5507-30.4414,34.2871-30.4414s34.2881,8.57,34.2881,30.4414v36.4375H145.8916v-30.832c0-13.3457-3.6494-19.2305-13.44-19.2305s-13.44,5.8848-13.44,19.2305Z"/><path class="cls-3" d="M184.2686,433.3815c0-19.6445,13.3105-35.4629,31.4443-35.4629,8.34,0,15.1475,2.99,20.168,8.295l1.5791,1.666v-7.9512h21.12v42.2949c-.1133,20.2676-5.1914,24.2637-20.8594,24.4688v-7.77h-1.6025l-.2764.33a26.349,26.349,0,0,1-20.1289,9.4571C197.5752,468.71,184.2686,453.02,184.2686,433.3815Zm22.2119.002c0,10.1933,6.3818,17.5957,15.8,17.5957,9.0488,0,15.7011-7.3906,15.7011-17.5957,0-10.3613-7.0253-17.7344-15.7011-17.7344C213.4863,415.6491,206.4805,423.0183,206.4805,433.3835Z"/><path class="cls-3" d="M298.5889,400.8522l16.3027,37.7871,16.3027-37.7871h24.76L321.86,465.7761H307.9229l-34.0948-64.9239Z"/><path class="cls-3" d="M373.4917,464.7975V398.1784h21.5117v66.6191Zm.9131-88.9765a10.1108,10.1108,0,1,1,10.1035,10.4941A10.4455,10.4455,0,0,1,374.4048,375.821Z"/><path class="cls-3" d="M415.25,484.6218l17.1152-8.461c2.7559,4.1328,8.336,8.3242,17.6641,8.3242,6.3789,0,16.5234-4.0253,16.5234-16.623V460.37l-1.6289,1.8828c-4.4384,5.1289-11.5742,6.4571-20.2568,6.4571-18.2373,0-31.5439-15.69-31.5439-35.3282,0-19.6445,13.3115-35.4629,31.5439-35.4629,8.2734,0,14.88,2.8575,19.94,7.9063l.2686.2695h1.6767v-6.16c9.6153.0449,19.9678-.5332,20.8819,19.6523v49.9707c0,21.7735-15.9,33.0488-37.4053,33.0488C436.9468,502.6061,422.1938,499.5065,415.25,484.6218Zm20.127-51.2383c0,10.1933,6.4228,17.5957,15.8994,17.5957,9.1064,0,15.7754-7.3906,15.7754-17.5957,0-10.3613-7.044-17.7344-15.7754-17.7344C442.4263,415.6491,435.3765,423.0183,435.3765,433.3835Zm52.0576-13.41.001.0235-.001-.0469Z"/><path class="cls-3" d="M504.5728,433.3815c0-19.6445,13.31-35.4629,31.4443-35.4629,8.34,0,15.1475,2.99,20.1689,8.295l1.5782,1.666v-7.9512h21.12v42.2949c-.1133,20.2676-5.1914,24.2637-20.8594,24.4688v-7.77h-1.6025l-.2764.33a26.349,26.349,0,0,1-20.1289,9.4571C517.8794,468.71,504.5728,453.02,504.5728,433.3815Zm22.2119.002c0,10.1933,6.3818,17.5957,15.8,17.5957,9.0488,0,15.7011-7.3906,15.7011-17.5957,0-10.3613-7.0253-17.7344-15.7011-17.7344C533.7905,415.6491,526.7847,423.0183,526.7847,433.3835Z"/><path class="cls-3" d="M604.1714,400.405V374.9733H623.44v25.5684h13.8838c-.4843,7.5488,1.5889,15.99-13.0146,16.0625l-.8692.0058v22.8184c0,6.4414,1.5625,10.5078,6.0889,10.5078a10.926,10.926,0,0,0,5.1807-1.5449l5.1162,16.6289a37.5291,37.5291,0,0,1-15.7569,3.69c-15.7011,0-19.8974-13.1778-19.8974-25.0977V416.3815h-9.6475V400.405Z"/><path class="cls-3" d="M723.4829,435.9186H676.5317v1.0157c0,11.4355,8.8311,15.3476,14.6817,15.3476,7.0332,0,10.5908-1.6074,15.6885-7.209l15.0312,7.5411c-7.4805,11.7089-18.7617,16.0957-32.33,16.0957-18.7217,0-34.7871-15.9434-34.7871-35.3282,0-19.5234,16.0674-35.4629,34.7871-35.4629,18.9473,0,33.919,12.0039,33.919,35.77C723.522,434.2917,723.5093,435.4147,723.4829,435.9186ZM677.09,423.7311h26.2266l-.1582-1.1211c-1.0557-7.5019-6.0908-11.6542-12.9365-11.6542-7.9825,0-12.666,5.0957-13.0694,11.7363Z"/><path class="cls-4" d="M738.9553,416.9771a3.4673,3.4673,0,0,0,.8716-5.6691,1.022,1.022,0,0,1-.32-1.3933c.9747-2.3723,1.9334-4.7508,2.8224-7.147a1.2373,1.2373,0,0,1,1.4505-.9156c2.3555.0649,4.72.0536,7.0806.0676.3468.002.6956-.02,1.3452-.0394-.8719-.5878-1.5051-1.0249-2.1495-1.4475q-18.9429-12.4216-37.9011-24.8235a3.6539,3.6539,0,0,0-1.8348-.6083q-26.2927-.4188-52.5926-.7676a1.79,1.79,0,0,0-.9156.2031l23.1818,13.928-6.7,16.92c.124.0538.1972.1154.2354.0979,5.3085-2.42,10.6736-2.347,16.0062-1.3745a68.0446,68.0446,0,0,1,20.4645,6.7c3.6839,2.0009,7.0131,4.3861,9.3373,8.0812l.4833-1.22c1.965-4.9621,3.947-9.9195,5.8764-14.8917a1.2519,1.2519,0,0,1,1.4195-.9506c4.3548.0679,8.7151.0811,13.0733.1153.2826.0023.5635.0232.9184.0385a4.4666,4.4666,0,0,1-.1429.6509c-.9367,2.3837-1.8585,4.7723-2.8525,7.1383a1.5464,1.5464,0,0,1-.98.735,4.2072,4.2072,0,0,0-3.3278,2.2652,3.0844,3.0844,0,0,0,.4362,3.7372c.421.4494.3212.7716.02,1.25q-4.0227,6.3783-8.0089,12.7754c-.0941.15-.1767.3068-.3077.5356l5,1.4447,1.9786-3.5438c.3375,1.3582.6682,2.4665.8771,3.6034.1546.842.5964,1.2253,1.5871,1.1643.582-5.3368,1.1633-10.6677,1.7381-15.9388A14.0344,14.0344,0,0,0,738.9553,416.9771Z"/><path class="cls-4" d="M737.125,417.6969a14.0344,14.0344,0,0,0,1.83-.72,3.4673,3.4673,0,0,0,.8716-5.6691,1.022,1.022,0,0,1-.32-1.3933c.9747-2.3723,1.9334-4.7508,2.8224-7.147a1.2373,1.2373,0,0,1,1.4505-.9156c2.3555.0649,4.72.0536,7.0806.0676.3468.002.6956-.02,1.3452-.0394-.8719-.5878-1.5051-1.0249-2.1495-1.4475q-18.9429-12.4216-37.9011-24.8235a3.6539,3.6539,0,0,0-1.8348-.6083q-26.2927-.4188-52.5926-.7676a1.79,1.79,0,0,0-.9156.2031l23.1818,13.928-6.7,16.92c.124.0538.1972.1154.2354.0979,5.3085-2.42,10.6736-2.347,16.0062-1.3745a68.0446,68.0446,0,0,1,20.4645,6.7c3.6839,2.0009,7.0131,4.3861,9.3373,8.0812l.4833-1.22c1.965-4.9621,3.947-9.9195,5.8764-14.8917a1.2519,1.2519,0,0,1,1.4195-.9506c4.3548.0679,8.7151.0811,13.0733.1153.2826.0023.5635.0232.9184.0385a4.4666,4.4666,0,0,1-.1429.6509c-.9367,2.3837-1.8585,4.7723-2.8525,7.1383a1.5464,1.5464,0,0,1-.98.735,4.2072,4.2072,0,0,0-3.3278,2.2652,3.0844,3.0844,0,0,0,.4362,3.7372c.421.4494.3212.7716.02,1.25q-4.0227,6.3783-8.0089,12.7754c-.0941.15-.1767.3068-.3077.5356l5,1.4447,1.9786-3.5438c.3375,1.3582.6682,2.4665.8771,3.6034.1546.842.5964,1.2253,1.5871,1.1643C735.9689,428.2989,736.55,422.968,737.125,417.6969Z"/><circle class="cls-5" cx="371.5873" cy="163.4043" r="147.766"/><path class="cls-5" d="M371.5072,326.5727A163.2864,163.2864,0,0,1,256.0464,47.8254,163.2863,163.2863,0,0,1,486.9683,278.747,162.2174,162.2174,0,0,1,371.5072,326.5727Zm0-295.5322c-72.92,0-132.2457,59.3252-132.2457,132.2457s59.3252,132.246,132.2457,132.246,132.2456-59.3251,132.2456-132.246S444.4277,31.0405,371.5072,31.0405Z"/><circle class="cls-6" cx="371.5072" cy="163.2864" r="133.8657"/><path class="cls-3" d="M371.5872,298.7959c-74.6553,0-135.3919-60.7366-135.3919-135.3916S296.9319,28.0124,371.5872,28.0124,506.9791,88.749,506.9791,163.4043,446.2425,298.7959,371.5872,298.7959Zm0-261.0833A125.6916,125.6916,0,1,0,497.279,163.4043,125.8341,125.8341,0,0,0,371.5872,37.7126Z"/><polygon class="cls-3" points="371.285 282.816 374.792 291.831 367.778 291.831 371.285 282.816"/><path class="cls-3" d="M377.6277,293.7709H364.9424l6.3426-16.3065Zm-7.013-3.88h1.3407l-.67-1.7234Z"/><polygon class="cls-3" points="371.285 44.597 374.792 35.582 367.778 35.582 371.285 44.597"/><path class="cls-3" d="M371.285,49.949l-6.3426-16.3069h12.6853Zm-.67-12.4268.67,1.7231.67-1.7231Z"/><polygon class="cls-3" points="490.999 162.146 500.014 158.639 500.014 165.652 490.999 162.146"/><path class="cls-3" d="M501.9535,168.489l-16.3053-6.3433,16.3053-6.3427Zm-5.6035-6.3433,1.7234.67v-1.3408Z"/><polygon class="cls-3" points="252.176 162.146 243.161 158.639 243.161 165.652 252.176 162.146"/><path class="cls-3" d="M241.2207,168.489V155.803l16.3065,6.3427Zm3.88-7.0137v1.3408l1.7234-.67Z"/><path class="cls-7" d="M429.2053,219.1345l-41.38-71.7368L355.8992,179.756l72.2863,40.4121A.7531.7531,0,0,0,429.2053,219.1345Z"/><path class="cls-7" d="M429.9162,219.8428a1.4032,1.4032,0,0,1-.3666.6509,1.3868,1.3868,0,0,1-1.68.2391L354.8427,179.906l33.1189-33.5667,41.8041,72.4723A1.3916,1.3916,0,0,1,429.9162,219.8428Zm-.7107-.7081.0015-.0061Zm-72.25-39.5288,71.5448,39.9977a.0939.0939,0,0,0,.1281-.0182.0924.0924,0,0,0,.0165-.1276L387.69,148.4563Z"/><path class="cls-2" d="M313.6491,107.202l41.38,71.7368,31.9264-32.3583-72.2862-40.4121A.7531.7531,0,0,0,313.6491,107.202Z"/><path class="cls-2" d="M388.0117,146.43l-33.1189,33.5671-41.8039-72.472a1.4,1.4,0,0,1,1.8955-1.9212Zm-32.847,31.45,30.734-31.15-71.5455-39.9979a.0927.0927,0,0,0-.1275.0187.0941.0941,0,0,0-.0163.128Z"/></svg>